<?xml version="1.0" encoding="UTF-8"?>
<svg version="1.1" xmlns="http://www.w3.org/2000/svg" width="512" height="512">
<path d="M0 0 C7.19601148 7.01913323 13.96966324 14.21959577 20.0546875 22.23828125 C20.4873291 22.80514648 20.9199707 23.37201172 21.36572266 23.95605469 C47.64679923 58.53787004 62.47855938 96.73325077 70.0546875 139.23828125 C70.18891113 139.98335937 70.32313477 140.7284375 70.46142578 141.49609375 C79.90613047 195.69355526 62.55521654 261.13340156 31.48046875 305.82421875 C30.67415681 306.96385743 29.86564599 308.10194433 29.0546875 309.23828125 C28.32636719 310.26179688 27.59804688 311.2853125 26.84765625 312.33984375 C18.24203019 324.09311321 8.68479597 334.78287092 -1.5703125 345.11328125 C-2.73312744 346.2899939 -2.73312744 346.2899939 -3.91943359 347.49047852 C-46.25076711 389.5941282 -108.21506121 411.92211764 -167.3203125 412.42578125 C-204.82057777 412.31662783 -246.76194846 404.61814655 -279.29418945 385.06079102 C-286.98183152 382.67570343 -295.43856812 386.43749865 -302.7265625 388.859375 C-304.44170547 389.41717148 -304.44170547 389.41717148 -306.1914978 389.98623657 C-309.29953421 390.99821546 -312.40505967 392.01749814 -315.50972748 393.03975296 C-320.77599244 394.77023416 -326.04939328 396.47898274 -331.32116318 398.19260216 C-333.37273037 398.85981218 -335.42394576 399.52809553 -337.47512817 400.19648743 C-347.08270736 403.32448079 -356.7067097 406.39764019 -366.34375 409.43359375 C-367.00152184 409.64084391 -367.65929367 409.84809406 -368.33699799 410.06162453 C-374.08099455 411.8707425 -379.82640492 413.67534178 -385.57250977 415.47775269 C-387.95934503 416.22657742 -390.345962 416.97609845 -392.73233032 417.72640991 C-394.886057 418.40355596 -397.04030011 419.07906255 -399.19515991 419.75259399 C-400.62391953 420.20195816 -400.62391953 420.20195816 -402.08154297 420.66040039 C-402.9050827 420.91841934 -403.72862244 421.17643829 -404.57711792 421.442276 C-407.00202908 422.22137566 -407.00202908 422.22137566 -409.4992981 423.3368988 C-411.9453125 424.23828125 -411.9453125 424.23828125 -415.9453125 424.23828125 C-415.42294263 417.89974973 -414.27834128 412.44698407 -412.15625 406.46875 C-411.86469025 405.6223848 -411.57313049 404.77601959 -411.2727356 403.90400696 C-410.63369282 402.05212077 -409.99044997 400.20167979 -409.34350586 398.35253906 C-408.29842636 395.36317781 -407.26576903 392.36978046 -406.23632812 389.375 C-404.69076532 384.88075086 -403.14130987 380.38787342 -401.58886719 375.89599609 C-397.3042043 363.49099905 -393.03923874 351.0793287 -388.80662346 338.6564703 C-387.24117803 334.06329286 -385.66575233 329.47370225 -384.08277702 324.88653851 C-383.08695208 321.99358551 -382.10018849 319.09760068 -381.11581039 316.20073509 C-380.65348536 314.84606839 -380.18749989 313.49264457 -379.71759415 312.14058876 C-379.06937321 310.27357775 -378.43574001 308.40152132 -377.80273438 306.52929688 C-377.44240112 305.47859009 -377.08206787 304.4278833 -376.71081543 303.34533691 C-375.33914724 297.77795205 -375.38534697 293.35253496 -378.25390625 288.3671875 C-378.74947021 287.47531738 -379.24503418 286.58344727 -379.75561523 285.66455078 C-380.29259033 284.71950684 -380.82956543 283.77446289 -381.3828125 282.80078125 C-392.21757253 262.90255914 -399.58369912 241.34978741 -404.1328125 219.17578125 C-404.28790283 218.42135742 -404.44299316 217.66693359 -404.6027832 216.88964844 C-407.47919439 202.0483072 -408.35468397 187.5065546 -408.3203125 172.42578125 C-408.31943634 171.48251984 -408.31856018 170.53925842 -408.31765747 169.56741333 C-408.13461755 109.60062256 -385.26811475 49.51649368 -342.5703125 6.73828125 C-341.36417859 5.5693409 -340.15575594 4.40275848 -338.9453125 3.23828125 C-336.51011324 0.82253246 -334.09514767 -1.60476113 -331.7265625 -4.0859375 C-290.76713165 -46.5182246 -228.79349297 -67.14036148 -170.97167969 -68.71386719 C-106.74190527 -69.72943961 -46.04428726 -44.22645247 0 0 Z M-207.9453125 -23.76171875 C-208.80753418 -23.56304199 -209.66975586 -23.36436523 -210.55810547 -23.15966797 C-247.90889247 -14.33274273 -280.26992098 3.87892233 -307.9453125 30.23828125 C-308.77417969 31.00269531 -309.60304688 31.76710937 -310.45703125 32.5546875 C-322.77302677 44.27570739 -332.44396928 58.59289942 -340.9453125 73.23828125 C-341.3263916 73.88667969 -341.7074707 74.53507812 -342.10009766 75.203125 C-367.61422403 119.12177457 -373.81649535 173.20490986 -360.98242188 222.15649414 C-354.56525242 245.39067001 -344.29152782 266.21895826 -330.9453125 286.23828125 C-330.38897364 292.08256646 -331.78455265 296.60878707 -333.7265625 302.01171875 C-334.01606781 302.84526382 -334.30557312 303.6788089 -334.60385132 304.53761292 C-335.22244313 306.31534499 -335.84581289 308.09142059 -336.47357178 309.86593628 C-337.77721612 313.55165268 -339.057491 317.24532581 -340.33834839 320.93901062 C-340.97618611 322.77835071 -341.61511863 324.61731152 -342.25515747 326.45588684 C-344.87721545 333.99834832 -347.39311458 341.56833503 -349.8203125 349.17578125 C-350.31047852 350.69921143 -350.31047852 350.69921143 -350.81054688 352.25341797 C-352.35479679 356.66385413 -352.35479679 356.66385413 -352.9453125 361.23828125 C-346.06177259 359.83145861 -339.50156906 357.90390682 -332.83984375 355.68359375 C-331.79817551 355.34077362 -330.75650726 354.99795349 -329.68327332 354.64474487 C-326.37342376 353.55500337 -323.06547707 352.45963519 -319.7578125 351.36328125 C-311.49523561 348.6291659 -303.22771315 345.91180159 -294.9453125 343.23828125 C-294.17636658 342.98784058 -293.40742065 342.7373999 -292.61517334 342.47937012 C-290.69269323 341.8591068 -288.76266602 341.26236405 -286.83203125 340.66796875 C-285.83776123 340.35843262 -284.84349121 340.04889648 -283.8190918 339.72998047 C-278.81493159 338.87377635 -274.30424167 339.62619277 -269.95703125 342.2421875 C-269.26029297 342.64920898 -268.56355469 343.05623047 -267.84570312 343.47558594 C-267.11544922 343.91290039 -266.38519531 344.35021484 -265.6328125 344.80078125 C-220.85306822 370.55560527 -167.99638529 377.91889724 -117.9453125 364.55078125 C-94.30750069 357.89482718 -71.59027962 348.15185488 -51.9453125 333.23828125 C-51.09195312 332.59503906 -50.23859375 331.95179688 -49.359375 331.2890625 C-42.54282387 325.98849514 -36.20930352 320.17023802 -29.9453125 314.23828125 C-29.15785645 313.50182373 -29.15785645 313.50182373 -28.35449219 312.75048828 C0.77936438 285.36324454 19.04438265 249.13064693 27.0546875 210.23828125 C27.28929687 209.12453125 27.52390625 208.01078125 27.765625 206.86328125 C30.06746887 195.12054151 30.29386282 183.28921081 30.3046875 171.36328125 C30.30569458 170.59026672 30.30670166 169.8172522 30.30773926 169.02081299 C30.29677253 156.53777017 29.57235997 144.49614872 27.0546875 132.23828125 C26.91015137 131.50061523 26.76561523 130.76294922 26.61669922 130.00292969 C24.43305482 119.05810737 21.06143598 108.64244574 17.0546875 98.23828125 C16.39533203 96.49998047 16.39533203 96.49998047 15.72265625 94.7265625 C0.29519932 56.44690713 -30.18821335 22.62044176 -65.22167969 1.28808594 C-66.90024145 0.26573246 -68.56750125 -0.77510507 -70.234375 -1.81640625 C-87.31920369 -12.09931251 -106.69069395 -18.54344494 -126.0703125 -22.94921875 C-127.08955811 -23.1817334 -127.08955811 -23.1817334 -128.12939453 -23.41894531 C-141.49958727 -26.30894695 -154.44264642 -27.13535502 -168.0703125 -27.07421875 C-169.36556351 -27.07098602 -169.36556351 -27.07098602 -170.6869812 -27.06768799 C-183.31924681 -27.01706822 -195.60237887 -26.69273755 -207.9453125 -23.76171875 Z " fill="#5557DC" transform="translate(428.9453125,78.76171875)"/>
<path d="M0 0 C0.77794922 -0.01224609 1.55589844 -0.02449219 2.35742188 -0.03710938 C7.67935881 -0.05042531 12.27369178 0.4005744 17.3125 2.1875 C20.81404141 5.83134647 22.59078591 9.80204442 24.30078125 14.48046875 C24.56511963 15.17993118 24.82945801 15.87939362 25.10180664 16.60005188 C25.9518686 18.8551103 26.78891528 21.11472616 27.625 23.375 C28.49301697 25.69809179 29.36333103 28.02031345 30.2339325 30.34243774 C30.80481966 31.86575586 31.37458226 33.38949592 31.94319153 34.91366577 C33.77732895 39.81650764 35.71360108 44.66625829 37.72460938 49.49951172 C43.13713869 62.65219278 43.13713869 62.65219278 41.3125 69.1875 C38.03081033 76.64959932 31.47315141 82.53338761 25.921875 88.3671875 C22.35143522 92.13580364 22.35143522 92.13580364 20.9765625 96.96875 C22.42259222 110.82373243 37.84551408 126.99145681 47.08203125 136.80078125 C48.9050622 138.75152015 50.58601795 140.72894655 52.25 142.8125 C56.32433806 147.60785856 61.36048215 151.34702379 66.3125 155.1875 C67.1684375 155.85910156 68.024375 156.53070313 68.90625 157.22265625 C76.58104829 163.03654712 84.80890248 167.71368613 93.3125 172.1875 C94.24739258 172.68056641 94.24739258 172.68056641 95.20117188 173.18359375 C101.90827744 176.86680248 101.90827744 176.86680248 109.28515625 178.234375 C113.56028226 176.75600884 115.70757008 174.17599053 118.625 170.8125 C119.18896484 170.1848877 119.75292969 169.55727539 120.33398438 168.91064453 C124.49630953 164.24045889 128.47069908 159.42950197 132.3125 154.4921875 C134.56315934 151.89865428 136.34388175 149.95011709 139.3125 148.1875 C146.90890691 147.9519525 153.20618922 151.62829402 159.875 154.9375 C161.05143066 155.51371094 162.22786133 156.08992187 163.43994141 156.68359375 C171.46792006 160.64444183 179.3718985 164.82135543 187.1875 169.1875 C188.1369751 169.7144043 189.0864502 170.24130859 190.06469727 170.78417969 C194.76329924 173.46615729 198.92156564 175.92261349 202.3125 180.1875 C205.05084693 190.336618 199.75819906 204.00218776 194.8828125 212.75390625 C190.52246915 219.5865017 185.13458245 223.90873776 178.3125 228.1875 C177.67828125 228.58582031 177.0440625 228.98414063 176.390625 229.39453125 C159.58345717 238.72771515 140.6248184 239.90436153 122.3125 235.1875 C94.64818025 226.96779628 65.84242259 214.51341601 43.3125 196.1875 C42.52141846 195.54868896 42.52141846 195.54868896 41.71435547 194.89697266 C27.61377679 183.43271568 14.37762561 170.62403107 3.3125 156.1875 C2.61125 155.32640625 1.91 154.4653125 1.1875 153.578125 C-22.57873696 123.8703288 -45.26133674 89.60027372 -42.6875 50.1875 C-40.55983219 32.83713669 -31.70754886 16.12267475 -18.0859375 5.078125 C-12.01515441 0.92547207 -7.33743708 0.00593164 0 0 Z " fill="#5557DD" transform="translate(183.6875,132.8125)"/>
</svg>
